<svg id="Layer_1" data-name="Layer 1" xmlns="http://www.w3.org/2000/svg" xmlns:xlink="http://www.w3.org/1999/xlink" viewBox="0 0 336 297"><defs><style>.cls-1,.cls-5,.cls-6{fill:none;}.cls-2,.cls-3{fill:#af2824;}.cls-2{stroke:#af2824;stroke-width:0.52px;}.cls-2,.cls-5,.cls-6{stroke-miterlimit:10;}.cls-4{clip-path:url(#clip-path);}.cls-5{stroke:#686868;stroke-width:1.05px;}.cls-6{stroke:#414042;stroke-width:0.33px;}.cls-7{clip-path:url(#clip-path-2);}</style><clipPath id="clip-path"><path class="cls-1" d="M125.38,55.41c2.15-7.85,5-15.5,7.6-23.25h37.87v56H117.26C119.1,77.1,122.4,66.26,125.38,55.41Z"/></clipPath><clipPath id="clip-path-2"><path class="cls-1" d="M219.68,55.41c-2.15-7.85-5-15.5-7.6-23.25H174.21v56h53.53C226,77.1,222.71,66.26,219.68,55.41Z"/></clipPath></defs><title>ArundhatiChakraborty_Logo_2</title><g id="Layer_2" data-name="Layer 2"><path class="cls-2" d="M170.8,162c-.05-.57-.05-.83-.1-1.31H172a10.71,10.71,0,0,0,0,1.31Zm.42,12.73c-.05-5.08-.16-7.85-.31-11.21h.89c-.16,3.36-.11,6.08-.11,11.16A1.51,1.51,0,0,1,171.22,174.69Z"/><path class="cls-2" d="M167.71,191.77c0,1.26,0,1.89,0,3.14h.05a5.45,5.45,0,0,1,.48-1.36,3.55,3.55,0,0,1,.83-1.1,3.51,3.51,0,0,1,1.16-.73,4.22,4.22,0,0,1,1.46-.26,3.87,3.87,0,0,1,1.58.31,3.38,3.38,0,0,1,1.25.89,4,4,0,0,1,.84,1.47,5.86,5.86,0,0,1,.31,2c.06,3.4.06,5.08.11,8.49h-.47c-.05-3.36-.05-5.09-.11-8.44a5,5,0,0,0-.31-1.88,4.31,4.31,0,0,0-.79-1.31,2.68,2.68,0,0,0-1.15-.74,4.11,4.11,0,0,0-1.36-.26,3.69,3.69,0,0,0-1.73.42,5.26,5.26,0,0,0-1.26,1.15,5.37,5.37,0,0,0-.73,1.73,8.25,8.25,0,0,0-.26,2c.05,2.88.05,4.35,0,7.29h-.47c.05-5.14.05-7.71-.11-12.84Z"/><path class="cls-2" d="M162.58,233.31a1.91,1.91,0,0,0,.31,1.94,4.91,4.91,0,0,0,2.72,1.15,31.48,31.48,0,0,0,5.51.37c3.35,0,6-.21,7.59-.84s1.68-1.68.94-3.25h.63c.95,1.63,1,2.83-.63,3.51s-4.71.89-8.38.89a49.11,49.11,0,0,1-6.18-.31,5.61,5.61,0,0,1-3-1.15,2,2,0,0,1-.21-2.15,13.83,13.83,0,0,1,1.63-2.88c.73-1.15,1.36-2.1,1.88-2.83s1-1.47,1.52-2.15a5.32,5.32,0,0,1,2-1.52,5.85,5.85,0,0,1,2.46-.52,6.58,6.58,0,0,1,3,.63,6.67,6.67,0,0,1,2.1,1.73,14.58,14.58,0,0,1,1.31,2.41c.31.62.78,1.41,1.31,2.35H163.89A9.53,9.53,0,0,0,162.58,233.31Zm14.61-5.18a7.58,7.58,0,0,0-1.31-2.1,5.4,5.4,0,0,0-1.94-1.47,5.92,5.92,0,0,0-2.62-.52,5.56,5.56,0,0,0-2.3.47,5.71,5.71,0,0,0-1.89,1.36c-.52.58-.94,1.21-1.41,1.84s-1,1.41-1.62,2.41h14.09C177.82,229.33,177.51,228.91,177.19,228.13Z"/><path class="cls-3" d="M224.86,95c-4.77,28.29-22.58,50-45.68,66h-1.1c14.57-13.31-2.36-48.72-6.81-62.71H171c-4.77,16-19.38,47.05-6.5,62.71h-1.2c-22.74-16-41.23-37.77-45.52-66h2.88c4.5,27.56,21.16,47.05,41.59,64.65h.1c-12.62-17.19,1-47.36,6.34-64.65h4.77c4.14,13.68,22.05,52.23,6.55,64.65h.1c21.85-13.47,37.51-40,41.75-64.65Z"/></g><g id="Layer_3" data-name="Layer 3"><g class="cls-4"><circle class="cls-5" cx="97.72" cy="94.7" r="1.52"/><circle class="cls-5" cx="97.72" cy="94.7" r="6.08"/><circle class="cls-5" cx="97.72" cy="94.7" r="12.21"/><circle class="cls-5" cx="97.72" cy="94.7" r="18.28"/><circle class="cls-5" cx="97.72" cy="94.7" r="24.36"/><circle class="cls-5" cx="97.72" cy="94.7" r="30.44"/><circle class="cls-5" cx="97.72" cy="94.7" r="36.56" transform="translate(-4.72 184.28) rotate(-85.27)"/><circle class="cls-5" cx="97.72" cy="94.7" r="42.64"/><circle class="cls-5" cx="97.72" cy="94.7" r="48.72"/><circle class="cls-5" cx="97.72" cy="94.7" r="54.79"/><circle class="cls-5" cx="97.72" cy="94.7" r="60.92"/><circle class="cls-5" cx="97.72" cy="94.7" r="67"/><circle class="cls-5" cx="97.72" cy="94.7" r="73.08"/></g></g><g id="Layer_6" data-name="Layer 6"><circle class="cls-6" cx="165.72" cy="41.58" r="8.75"/><circle class="cls-6" cx="165.72" cy="41.58" r="6.55"/><circle class="cls-6" cx="165.72" cy="41.58" r="4.45"/><circle class="cls-6" cx="165.72" cy="41.58" r="2.51"/><circle class="cls-6" cx="165.72" cy="41.58" r="0.63"/></g><g id="Layer_8" data-name="Layer 8"><g class="cls-7"><rect class="cls-3" x="116.58" y="18.22" width="1.57" height="78.58"/><rect class="cls-3" x="124.18" y="18.22" width="1.57" height="78.58"/><rect class="cls-3" x="131.77" y="18.22" width="1.57" height="78.58"/><rect class="cls-3" x="139.37" y="18.22" width="1.57" height="78.58"/><rect class="cls-3" x="146.97" y="18.22" width="1.57" height="78.58"/><rect class="cls-3" x="154.56" y="18.22" width="1.57" height="78.58"/><rect class="cls-3" x="162.16" y="18.22" width="1.57" height="78.58"/><rect class="cls-3" x="169.75" y="18.22" width="1.57" height="78.58"/><rect class="cls-3" x="177.35" y="18.22" width="1.57" height="78.58"/><rect class="cls-3" x="184.94" y="18.22" width="1.57" height="78.58"/><rect class="cls-3" x="192.54" y="18.22" width="1.57" height="78.58"/><rect class="cls-3" x="200.14" y="18.22" width="1.57" height="78.58"/><rect class="cls-3" x="207.73" y="18.22" width="1.57" height="78.58"/><rect class="cls-3" x="215.33" y="18.22" width="1.57" height="78.58"/><rect class="cls-3" x="222.92" y="18.22" width="1.57" height="78.58"/><rect class="cls-3" x="230.52" y="18.22" width="1.57" height="78.58"/><rect class="cls-3" x="238.11" y="18.22" width="1.57" height="78.58"/><rect class="cls-3" x="245.71" y="18.22" width="1.57" height="78.58"/></g></g><g id="Layer_9" data-name="Layer 9"><path class="cls-2" d="M114.54,270.35h-.79c11.06-8.65,25.57-12.31,36-21.74h.69a46.24,46.24,0,0,0-2.15,21.74h-1.1a46.18,46.18,0,0,1-.89-7.7c-6.45-.06-12.89-.16-19.39-.21C122.71,264.48,118,267.05,114.54,270.35Zm35.36-21.27h0c-6.18,5.6-14.41,9-21.69,12.73,6,.1,12,.16,18.13.21C146.55,256.2,149,253.22,149.9,249.08Z"/><path class="cls-2" d="M159.85,270.35c2.57-7.18,3-14.62,5.56-21.74h7.8a7,7,0,0,1,4.56,1.31,8.55,8.55,0,0,1,2.46,4.14,4.28,4.28,0,0,1,.05,3.51c-.52.94-1.57,1.57-3.35,1.88v.05a12.59,12.59,0,0,1,2.88.68,5.72,5.72,0,0,1,1.94,1.26,8,8,0,0,1,1.36,1.78,12,12,0,0,1,.94,2.36c.11.31.21.68.37,1.15s.26.95.42,1.42.26.89.42,1.31a3.08,3.08,0,0,0,.37.84h-.84a8.86,8.86,0,0,1-.42-.95c-.11-.42-.26-.84-.37-1.25s-.26-.9-.36-1.37-.21-.84-.32-1.2a13.14,13.14,0,0,0-1-2.41,6.42,6.42,0,0,0-1.58-1.78,7,7,0,0,0-2.46-1.1,15.33,15.33,0,0,0-3.87-.42c-4.2-.05-6.5-.11-10.74-.16-.58,4.24-.84,6.5-2.83,10.69Zm14.41-11.16a11.25,11.25,0,0,0,2.77-.26A3.89,3.89,0,0,0,179,258a2.59,2.59,0,0,0,.89-1.62,5.55,5.55,0,0,0-.26-2.36,7.41,7.41,0,0,0-2.15-3.51,6.19,6.19,0,0,0-4.19-1.25c-3-.06-4.45-.06-7.54-.06-1.31,3.57-1.36,5.66-1.94,9.9C167.92,259.08,170.17,259.14,174.26,259.19Z"/><path class="cls-2" d="M184.47,248.66h16.14a2.88,2.88,0,0,0,.15.63h-8.11c5.6,10.27,21.26,14.4,30.17,21.11H221c-8.86-7.18-23.21-10.79-29-21.11h-7.49A2.25,2.25,0,0,1,184.47,248.66Z"/></g></svg>