<svg id="Layer_1" data-name="Layer 1" xmlns="http://www.w3.org/2000/svg" viewBox="0 0 57.17 40.17"><defs><style>.cls-1{fill:#4e4e4e;}.cls-2{fill:#fff;}</style></defs><title>camera</title><path class="cls-1" d="M21.35,46l0,.07h.47c1.4-.13,2.81-.24,4.21-.4a3.44,3.44,0,0,0,.94-.43,2.49,2.49,0,0,1,.69-.31c.57-.08,1.15-.08,1.73-.14,1-.1,2-.18,3-.34A12.28,12.28,0,0,0,36,43.14a2.64,2.64,0,0,1,1.11-.36c1.8,0,3.61,0,5.41,0q4.1,0,8.19-.16a6.27,6.27,0,0,0,2.25-.39A4.57,4.57,0,0,0,55.86,38c0-1.88.09-3.76.12-5.64,0-1.2.06-2.41.06-3.61,0-3,0-6-.08-9,0-.56.07-1.12,0-1.66a3,3,0,0,0-1.59-2.81c-.83-.4-1.69-.72-2.54-1.06a23.4,23.4,0,0,1-4-1.85.71.71,0,0,0-1,.28,1.51,1.51,0,0,0-.18,1.06c.16.91.32,1.82.42,2.74.22,2.11.41,4.22.59,6.33.05.62,0,1.24,0,1.86s.17.72.71.73.9,0,1.34,0a2.06,2.06,0,0,1,.92.28,2.94,2.94,0,0,1,.79,3.48,1.46,1.46,0,0,1-1.24,1c-.42.06-.84.1-1.26.13a3.4,3.4,0,0,1-.45,0l0-.11.24-.13a2.67,2.67,0,0,0,.63-.39,2.24,2.24,0,0,0,.12-2.36,20.76,20.76,0,0,0-1.57-1.54l-.16.08c.09,1.83.17,3.66.26,5.48,0,.65.09,1.29.13,1.93,0,.21,0,.42-.31.41-.54,0-.78.31-1,.76a5,5,0,0,0-.1,3.11.58.58,0,0,0,.26.32c.38.22.43.47.12.79-.15.16-.32.31-.48.46a3.2,3.2,0,0,1-1.89.9c-1.25.1-2.51.18-3.76.26h-.37l1.09-1a12.79,12.79,0,0,0,2.76-3.29,22,22,0,0,0,1.75-4,11.46,11.46,0,0,0-.33-8.13,4.2,4.2,0,0,1-.45-2.53,1.74,1.74,0,0,0,0-.51,19.29,19.29,0,0,0-1.22-5.62A3.48,3.48,0,0,0,41,12.72a1.88,1.88,0,0,1-1.32-.53,3.37,3.37,0,0,1-.79-2,.84.84,0,0,1,.21-.52,3.78,3.78,0,0,1,1.74-1.21c1.23-.37,2.48-.69,3.73-1a10.8,10.8,0,0,1,1.16-.16,11.61,11.61,0,0,0-4.65.45,17.58,17.58,0,0,1-3.33.81c-2,.22-3.94.31-5.91.38a2.36,2.36,0,0,0-2,1.12,6.24,6.24,0,0,0-1,2.59c-.12.63-.3.77-.85.73-.82-.06-1.64-.08-2.46-.07l-6.09.09a12.81,12.81,0,0,0-2,0,32.48,32.48,0,0,0-3.55.77,11.39,11.39,0,0,0-5.37,3.19,12.08,12.08,0,0,0-3,5.9C6,22.4,6.52,21.44,7,20.49a10.58,10.58,0,0,1,5-4.56,10.55,10.55,0,0,1,7.67-.67,12.16,12.16,0,0,1,6.65,4.42,18.73,18.73,0,0,1,3.11,8.57,19.35,19.35,0,0,1,.25,5,17.78,17.78,0,0,1-2.22,7.08,14.72,14.72,0,0,1-5.35,5.28A6.21,6.21,0,0,1,21.35,46Zm.2-28.31s0-.06,0-.08l-.23-.21a8.63,8.63,0,0,0-4.11-1.72,11.7,11.7,0,0,0-3.34.09,6.34,6.34,0,0,0-2.63.9A11.66,11.66,0,0,0,6.37,23.1a17.48,17.48,0,0,0-.88,4.53A20.09,20.09,0,0,0,7,36.56,18.86,18.86,0,0,0,10.44,42,19.19,19.19,0,0,0,12,43.4l.09-.09A11.88,11.88,0,0,1,9.36,39.7a19.08,19.08,0,0,0,3.69,2.88L11.82,41.2h.41l-1.65-2,.23-.21.66.91.07-.06-.11-.35c.71.56,1.38,1.13,2.1,1.64a7.36,7.36,0,0,0,2.34,1.13,8,8,0,0,1-1.8-2,7.82,7.82,0,0,1,.94.69,12,12,0,0,0,1,.73c.34.22.69.43,1.05.62a11.3,11.3,0,0,0,1.12.51c.35.15.72.28,1.08.41l0-.09L19,43a16.91,16.91,0,0,1-3.17-2.13,15.45,15.45,0,0,1-4.76-7.65,13.32,13.32,0,0,1-.12-6.46,13.58,13.58,0,0,1,.41-1.81,11.84,11.84,0,0,1,3.81-5.4A8.07,8.07,0,0,1,21.55,17.68Zm7.57,13.77-.19,0c0,.51,0,1-.06,1.52a14,14,0,0,1-2.14,7.11,12.77,12.77,0,0,1-.88,1.17,12.1,12.1,0,0,1-3.38,3.11,10.13,10.13,0,0,1-6.09,1.24,8.84,8.84,0,0,1-2.19-.41A10.68,10.68,0,0,1,10.78,43,15.44,15.44,0,0,1,7,37.81a20.53,20.53,0,0,1-1.44-4.93c-.18-1.1-.34-2.2-.52-3.33,0,.05-.06.07-.06.09A23.85,23.85,0,0,0,6,37.1a14.63,14.63,0,0,0,3.76,6.15,9.27,9.27,0,0,0,8.12,3,13.05,13.05,0,0,0,6.24-2.47,12.56,12.56,0,0,0,4-5.49,14.89,14.89,0,0,0,1-4.66C29.16,32.94,29.12,32.2,29.12,31.45ZM41.52,10v.11l.62.07a9.77,9.77,0,0,1,2.86.72,12.82,12.82,0,0,0,2,.67c.83.19,1.68.24,2.52.39a.44.44,0,0,1,.28.33.71.71,0,0,0,.5.73,10.71,10.71,0,0,0,6.35,1,.5.5,0,0,0,.34-.21,4.56,4.56,0,0,0,.38-1.11c0-.22-.14-.46-.22-.69l-.42.18c-.13-.29-.39-.12-.62-.09a1.6,1.6,0,0,1-.21,0h-.66c-.14-.23-.54-.26-.87,0-.06-.37-.35-.29-.6-.3h-.19l-.75-.11c-.25-.07-.57-.18-.91-.25a1.19,1.19,0,0,0-.44.07c-.06-.31-.31-.39-.66-.2l-.27-.74c-.23.21-.45.09-.69-.17a5.37,5.37,0,0,0-.67-.58c-.34.38-.4.55-.33.89s0,.61-.51.63a7.51,7.51,0,0,1-2.69-.55A11,11,0,0,0,42.48,10C42.16,10,41.84,10,41.52,10ZM58,14a12,12,0,0,1,1,1.41,8.64,8.64,0,0,1,.71,3.62.93.93,0,0,1-.17.46c-.12.2-.28.38-.39.59a2.26,2.26,0,0,0-.12.51c.34-.08.56-.14.79-.18a.77.77,0,0,1,.93.43A3.61,3.61,0,0,1,61,21.93c.08,1.3.12,2.61.13,3.91,0,1.85,0,3.69,0,5.54,0,1.42-.06,2.85-.07,4.27a3.1,3.1,0,0,0,.1,1A2.82,2.82,0,0,1,60.61,39H60.5l-.13-1.59A13.77,13.77,0,0,0,60.08,39a2.64,2.64,0,0,1-2.29,2.37l-.81.15-.88.22,0,.11c.7-.07,1.42-.1,2.12-.22a2.42,2.42,0,0,0,2.13-1.6,8.29,8.29,0,0,1,.95-1.85,2.67,2.67,0,0,0,.33-2,3.05,3.05,0,0,1-.08-.74c.05-1.59.1-3.19.17-4.78A22.82,22.82,0,0,1,62,27.9a7.15,7.15,0,0,0-.13-3.56,4,4,0,0,1-.1-.86,13.72,13.72,0,0,0-.78-3.9c0-.11-.14-.26-.23-.28-.48-.09-.47-.43-.49-.79A6.23,6.23,0,0,0,59,14.7,1.63,1.63,0,0,0,58,14ZM36.44,7.66l.23,0a14.27,14.27,0,0,1,4.57-.94c1,0,2.1.05,3.15.07h.76C43.52,5.69,38.07,6.31,36.44,7.66Zm9.65,7.83L46,16.2h-.11l-.44-1.27c-.08.06-.26.13-.32.26a1.58,1.58,0,0,0,.3,1.61.38.38,0,0,0,.56.05A1,1,0,0,0,46.09,15.49Zm.2,4.31s-.11,0-.15,0a.87.87,0,0,0-.4.92.89.89,0,0,0,.53.85.51.51,0,0,0,.71-.34,1.37,1.37,0,0,0-.24-1.14c0,.38.23.78-.28,1.11Z" transform="translate(-4.94 -6.22)"/><path class="cls-1" d="M21.35,46a6.21,6.21,0,0,0,.74-.34,14.72,14.72,0,0,0,5.35-5.28,17.78,17.78,0,0,0,2.22-7.08,19.35,19.35,0,0,0-.25-5,18.73,18.73,0,0,0-3.11-8.57,12.16,12.16,0,0,0-6.65-4.42,10.55,10.55,0,0,0-7.67.67A10.58,10.58,0,0,0,7,20.49c-.51,1-1,1.91-1.45,2.77a12.08,12.08,0,0,1,3-5.9A11.39,11.39,0,0,1,14,14.17a32.48,32.48,0,0,1,3.55-.77,12.81,12.81,0,0,1,2,0l6.09-.09c.82,0,1.64,0,2.46.07.55,0,.73-.1.85-.73a6.24,6.24,0,0,1,1-2.59,2.36,2.36,0,0,1,2-1.12c2-.07,4-.16,5.91-.38a17.58,17.58,0,0,0,3.33-.81,11.61,11.61,0,0,1,4.65-.45,10.8,10.8,0,0,0-1.16.16c-1.25.33-2.5.65-3.73,1a3.78,3.78,0,0,0-1.74,1.21.84.84,0,0,0-.21.52,3.37,3.37,0,0,0,.79,2,1.88,1.88,0,0,0,1.32.53,3.48,3.48,0,0,1,3.12,2.42,19.29,19.29,0,0,1,1.22,5.62,1.74,1.74,0,0,1,0,.51,4.2,4.2,0,0,0,.45,2.53,11.46,11.46,0,0,1,.33,8.13,22,22,0,0,1-1.75,4,12.79,12.79,0,0,1-2.76,3.29l-1.09,1h.37c1.25-.08,2.51-.16,3.76-.26a3.2,3.2,0,0,0,1.89-.9c.16-.15.33-.3.48-.46.31-.32.26-.57-.12-.79a.58.58,0,0,1-.26-.32,5,5,0,0,1,.1-3.11c.2-.45.44-.77,1-.76.28,0,.32-.2.31-.41,0-.64-.09-1.28-.13-1.93-.09-1.82-.17-3.65-.26-5.48l.16-.08a20.76,20.76,0,0,1,1.57,1.54,2.24,2.24,0,0,1-.12,2.36,2.67,2.67,0,0,1-.63.39l-.24.13,0,.11a3.4,3.4,0,0,0,.45,0c.42,0,.84-.07,1.26-.13a1.46,1.46,0,0,0,1.24-1,2.94,2.94,0,0,0-.79-3.48,2.06,2.06,0,0,0-.92-.28c-.44,0-.9,0-1.34,0s-.71-.19-.71-.73.08-1.24,0-1.86c-.18-2.11-.37-4.22-.59-6.33-.1-.92-.26-1.83-.42-2.74a1.51,1.51,0,0,1,.18-1.06.71.71,0,0,1,1-.28,23.4,23.4,0,0,0,4,1.85c.85.34,1.71.66,2.54,1.06A3,3,0,0,1,56,18c0,.54,0,1.1,0,1.66,0,3,.06,6,.08,9,0,1.2,0,2.41-.06,3.61,0,1.88-.08,3.76-.12,5.64a4.57,4.57,0,0,1-2.94,4.3,6.27,6.27,0,0,1-2.25.39q-4.1.14-8.19.16c-1.8,0-3.61,0-5.41,0a2.64,2.64,0,0,0-1.11.36,12.28,12.28,0,0,1-3.56,1.3c-1,.16-2,.24-3,.34-.58.06-1.16.06-1.73.14a2.49,2.49,0,0,0-.69.31,3.44,3.44,0,0,1-.94.43c-1.4.16-2.81.27-4.21.4h-.47ZM34.11,14.66l-.06.13c.26.19.53.37.79.57a13.27,13.27,0,0,1,4.24,6.09,23.76,23.76,0,0,1-.19,17.09c-.08.2-.14.4-.21.59l.11.06a6.32,6.32,0,0,0,.53-.85,19.91,19.91,0,0,0,1.55-6.67,23,23,0,0,0-2-11.82,11.5,11.5,0,0,0-4.06-4.91A4.84,4.84,0,0,0,34.11,14.66Zm-.72,15.09c0,.22,0,.44,0,.66s.19.51.6.46c.87-.1,1.75-.14,2.63-.2.25,0,.38-.13.38-.36a5.76,5.76,0,0,0-.06-1c-.08-.54-.14-.58-.7-.56s-1.34,0-2,.08C33.4,28.86,33.37,28.9,33.39,29.75Zm3.06-2.67a10.85,10.85,0,0,0-.16-1.16.71.71,0,0,0-.76-.6L33,25.45c-.32,0-.4.21-.36.48A8.85,8.85,0,0,0,32.86,27a.36.36,0,0,0,.25.22Zm-3.77,7.78,2.25-.12c1.3-.05,1.41-.14,1.74-1.44.07-.29,0-.38-.29-.37-1,0-2.08.06-3.12.11a.36.36,0,0,0-.26.2C32.88,33.76,32.79,34.29,32.68,34.86Zm-1-12.69c.18.49.36.92.49,1.38a.39.39,0,0,0,.5.34c.84-.12,1.67-.22,2.51-.31.26,0,.36-.15.29-.38s-.23-.75-.34-1.13a.45.45,0,0,0-.58-.34c-.78.12-1.56.22-2.34.33C32.07,22.08,31.91,22.13,31.7,22.17Zm1.16-4.59c-.18-.36-.29-.62-.44-.87a1,1,0,0,0-1-.53c-1,.11-1.94.16-2.91.25a3,3,0,0,0-.47.12,11.06,11.06,0,0,0,.77,1,.79.79,0,0,0,.52.24c.63,0,1.26,0,1.89-.07S32.26,17.62,32.86,17.58Zm.41,1.29-3,.26c-.25,0-.28.14-.16.35s.33.66.53,1a.44.44,0,0,0,.33.2c1-.12,2.06-.26,3.09-.41.11,0,.3-.23.28-.29a3.54,3.54,0,0,0-.5-.92C33.71,18.89,33.41,18.9,33.27,18.87Zm-2.61-3.51a2,2,0,0,0-.22-.24,3,3,0,0,0-1.82-.68c-1,0-1.94,0-2.91,0a1.19,1.19,0,0,0-.26,0,5.69,5.69,0,0,0,.67.49,2.51,2.51,0,0,0,.91.36c1,.05,2,0,3,0Zm4.57,21.58-.41,0c-.76,0-1.52.06-2.29,0a.74.74,0,0,0-.83.51c-.17.41-.13.53.33.52s1.21,0,1.81-.08S35.09,37.79,35.23,36.94Zm-1.84,3.3a2,2,0,0,0-.33,0c-1.08.1-2.17.19-3.25.33-.19,0-.34.26-.51.4a.92.92,0,0,0,.42.14,10.32,10.32,0,0,0,3.13-.31A.59.59,0,0,0,33.39,40.24Zm-6.21,3.1.05.12a7.36,7.36,0,0,0,3.37-.56c-1,0-2,.1-3,.21C27.44,43.12,27.32,43.26,27.18,43.34Z" transform="translate(-4.94 -6.22)"/><path class="cls-1" d="M21.55,17.68a8.07,8.07,0,0,0-6.4,1.83,11.84,11.84,0,0,0-3.81,5.4,13.58,13.58,0,0,0-.41,1.81,13.32,13.32,0,0,0,.12,6.46,15.45,15.45,0,0,0,4.76,7.65A16.91,16.91,0,0,0,19,43l.31.16,0,.09c-.36-.13-.73-.26-1.08-.41a11.3,11.3,0,0,1-1.12-.51c-.36-.19-.71-.4-1.05-.62a12,12,0,0,1-1-.73,7.82,7.82,0,0,0-.94-.69,8,8,0,0,0,1.8,2,7.36,7.36,0,0,1-2.34-1.13c-.72-.51-1.39-1.08-2.1-1.64l.11.35-.07.06L10.81,39l-.23.21,1.65,2h-.41l1.23,1.38A19.08,19.08,0,0,1,9.36,39.7a11.88,11.88,0,0,0,2.73,3.61L12,43.4A19.19,19.19,0,0,1,10.44,42,18.86,18.86,0,0,1,7,36.56a20.09,20.09,0,0,1-1.52-8.93,17.48,17.48,0,0,1,.88-4.53,11.66,11.66,0,0,1,4.84-6.44,6.34,6.34,0,0,1,2.63-.9,11.7,11.7,0,0,1,3.34-.09,8.63,8.63,0,0,1,4.11,1.72l.23.21S21.54,17.65,21.55,17.68Z" transform="translate(-4.94 -6.22)"/><path class="cls-1" d="M29.12,31.45c0,.75,0,1.49,0,2.23a14.89,14.89,0,0,1-1,4.66,12.56,12.56,0,0,1-4,5.49,13.05,13.05,0,0,1-6.24,2.47,9.27,9.27,0,0,1-8.12-3A14.63,14.63,0,0,1,6,37.1a23.85,23.85,0,0,1-1-7.46s0,0,.06-.09c.18,1.13.34,2.23.52,3.33A20.53,20.53,0,0,0,7,37.81,15.44,15.44,0,0,0,10.78,43a10.68,10.68,0,0,0,3.41,2.18,8.84,8.84,0,0,0,2.19.41,10.13,10.13,0,0,0,6.09-1.24,12.1,12.1,0,0,0,3.38-3.11,12.77,12.77,0,0,0,.88-1.17A14,14,0,0,0,28.87,33c0-.5,0-1,.06-1.52Z" transform="translate(-4.94 -6.22)"/><path class="cls-1" d="M41.52,10c.32,0,.64,0,1,0a11,11,0,0,1,3.16.85,7.51,7.51,0,0,0,2.69.55c.5,0,.6-.15.51-.63s0-.51.33-.89a5.37,5.37,0,0,1,.67.58c.24.26.46.38.69.17l.27.74c.35-.19.6-.11.66.2a1.19,1.19,0,0,1,.44-.07c.34.07.66.18.91.25l.75.11h.19c.25,0,.54-.07.6.3.33-.28.73-.25.87,0h.66a1.6,1.6,0,0,0,.21,0c.23,0,.49-.2.62.09l.42-.18c.08.23.25.47.22.69A4.56,4.56,0,0,1,57,13.77a.5.5,0,0,1-.34.21,10.71,10.71,0,0,1-6.35-1,.71.71,0,0,1-.5-.73A.44.44,0,0,0,49.5,12c-.84-.15-1.69-.2-2.52-.39a12.82,12.82,0,0,1-2-.67,9.77,9.77,0,0,0-2.86-.72l-.62-.07Z" transform="translate(-4.94 -6.22)"/><path class="cls-1" d="M58,14a1.63,1.63,0,0,1,1,.66,6.23,6.23,0,0,1,1.24,3.81c0,.36,0,.7.49.79.09,0,.19.17.23.28a13.72,13.72,0,0,1,.78,3.9,4,4,0,0,0,.1.86A7.15,7.15,0,0,1,62,27.9a22.82,22.82,0,0,0-.2,2.75c-.07,1.59-.12,3.19-.17,4.78a3.05,3.05,0,0,0,.08.74,2.67,2.67,0,0,1-.33,2,8.29,8.29,0,0,0-.95,1.85,2.42,2.42,0,0,1-2.13,1.6c-.7.12-1.42.15-2.12.22l0-.11.88-.22.81-.15A2.64,2.64,0,0,0,60.08,39a13.77,13.77,0,0,1,.29-1.64L60.5,39h.11a2.82,2.82,0,0,0,.54-2.34,3.1,3.1,0,0,1-.1-1c0-1.42.06-2.85.07-4.27,0-1.85.05-3.69,0-5.54,0-1.3,0-2.61-.13-3.91a3.61,3.61,0,0,0-.31-1.05.77.77,0,0,0-.93-.43c-.23,0-.45.1-.79.18a2.26,2.26,0,0,1,.12-.51c.11-.21.27-.39.39-.59a.93.93,0,0,0,.17-.46A8.64,8.64,0,0,0,59,15.45,12,12,0,0,0,58,14Z" transform="translate(-4.94 -6.22)"/><path d="M36.44,7.66c1.63-1.35,7.08-2,8.71-.91h-.76c-1,0-2.1-.06-3.15-.07a14.27,14.27,0,0,0-4.57.94Z" transform="translate(-4.94 -6.22)"/><path class="cls-1" d="M46.09,15.49A1,1,0,0,1,46,16.85a.38.38,0,0,1-.56-.05,1.58,1.58,0,0,1-.3-1.61c.06-.13.24-.2.32-.26l.44,1.27H46Z" transform="translate(-4.94 -6.22)"/><path class="cls-1" d="M46.29,19.8l.17,1.4c.51-.33.26-.73.28-1.11A1.37,1.37,0,0,1,47,21.23a.51.51,0,0,1-.71.34.89.89,0,0,1-.53-.85.87.87,0,0,1,.4-.92S46.24,19.8,46.29,19.8Z" transform="translate(-4.94 -6.22)"/><path class="cls-2" d="M34.11,14.66a4.84,4.84,0,0,1,.66.28,11.5,11.5,0,0,1,4.06,4.91,23,23,0,0,1,2,11.82,19.91,19.91,0,0,1-1.55,6.67,6.32,6.32,0,0,1-.53.85l-.11-.06c.07-.19.13-.39.21-.59a23.76,23.76,0,0,0,.19-17.09,13.27,13.27,0,0,0-4.24-6.09c-.26-.2-.53-.38-.79-.57Z" transform="translate(-4.94 -6.22)"/><path class="cls-2" d="M33.39,29.75c0-.85,0-.89.88-.94.67,0,1.34-.06,2-.08s.62,0,.7.56a5.76,5.76,0,0,1,.06,1c0,.23-.13.35-.38.36-.88.06-1.76.1-2.63.2-.41.05-.56-.11-.6-.46S33.4,30,33.39,29.75Z" transform="translate(-4.94 -6.22)"/><path class="cls-2" d="M36.45,27.08l-3.34.12a.36.36,0,0,1-.25-.22,8.85,8.85,0,0,1-.18-1.05c0-.27,0-.46.36-.48l2.49-.13a.71.71,0,0,1,.76.6A10.85,10.85,0,0,1,36.45,27.08Z" transform="translate(-4.94 -6.22)"/><path class="cls-2" d="M32.68,34.86c.11-.57.2-1.1.32-1.62a.36.36,0,0,1,.26-.2c1,0,2.08-.07,3.12-.11.29,0,.36.08.29.37-.33,1.3-.44,1.39-1.74,1.44Z" transform="translate(-4.94 -6.22)"/><path class="cls-2" d="M31.7,22.17c.21,0,.37-.09.53-.11.78-.11,1.56-.21,2.34-.33a.45.45,0,0,1,.58.34c.11.38.24.75.34,1.13s0,.35-.29.38c-.84.09-1.67.19-2.51.31a.39.39,0,0,1-.5-.34C32.06,23.09,31.88,22.66,31.7,22.17Z" transform="translate(-4.94 -6.22)"/><path class="cls-2" d="M32.86,17.58c-.6,0-1.12.1-1.64.13s-1.26.08-1.89.07a.79.79,0,0,1-.52-.24,11.06,11.06,0,0,1-.77-1,3,3,0,0,1,.47-.12c1-.09,1.95-.14,2.91-.25a1,1,0,0,1,1,.53C32.57,17,32.68,17.22,32.86,17.58Z" transform="translate(-4.94 -6.22)"/><path class="cls-2" d="M33.27,18.87c.14,0,.44,0,.57.16a3.54,3.54,0,0,1,.5.92c0,.06-.17.27-.28.29-1,.15-2.06.29-3.09.41a.44.44,0,0,1-.33-.2c-.2-.31-.35-.65-.53-1s-.09-.33.16-.35Z" transform="translate(-4.94 -6.22)"/><path class="cls-2" d="M30.66,15.36l-.67,0c-1,0-2,0-3,0a2.51,2.51,0,0,1-.91-.36,5.69,5.69,0,0,1-.67-.49,1.19,1.19,0,0,1,.26,0c1,0,1.94,0,2.91,0a3,3,0,0,1,1.82.68A2,2,0,0,1,30.66,15.36Z" transform="translate(-4.94 -6.22)"/><path class="cls-2" d="M35.23,36.94c-.14.85-.8.88-1.39,1S32.63,38,32,38s-.5-.11-.33-.52a.74.74,0,0,1,.83-.51c.77,0,1.53,0,2.29,0Z" transform="translate(-4.94 -6.22)"/><path class="cls-2" d="M33.39,40.24a.59.59,0,0,1-.54.54,10.32,10.32,0,0,1-3.13.31A.92.92,0,0,1,29.3,41c.17-.14.32-.38.51-.4,1.08-.14,2.17-.23,3.25-.33A2,2,0,0,1,33.39,40.24Z" transform="translate(-4.94 -6.22)"/><path class="cls-2" d="M27.18,43.34c.14-.08.26-.22.4-.23,1-.11,2-.2,3-.21a7.36,7.36,0,0,1-3.37.56Z" transform="translate(-4.94 -6.22)"/></svg>