<svg id="Layer_1" data-name="Layer 1" xmlns="http://www.w3.org/2000/svg" viewBox="0 0 34.72 32.44"><defs><style>.cls-1{fill:#4e4e4e;}.cls-2{fill:#fff;}</style></defs><title>editing</title><path class="cls-1" d="M14.68,9.5a1.55,1.55,0,0,1,1.08-.32H47.39c1.57,0,2,.43,2,2V32.1a3.44,3.44,0,0,1,0,.56,1.37,1.37,0,0,1-1.44,1.19H34.8v4.68h6.5c.63,0,.72.1.73.74s0,1.07,0,1.61-.16.73-.73.73H22.17c-.47,0-.69-.23-.69-.69s0-1.07,0-1.6.13-.78.76-.78h6.48V33.85h-.42c-4.19,0-8.37,0-12.55,0a4.62,4.62,0,0,1-1.06-.28Zm2.41,17.32h29.4V12.27H17.09ZM33.3,30.94a1.51,1.51,0,0,0-3-.1,1.51,1.51,0,1,0,3,.1Z" transform="translate(-14.68 -9.17)"/><path class="cls-2" d="M33.3,30.94a1.51,1.51,0,1,1-3-.1,1.51,1.51,0,0,1,3,.1Z" transform="translate(-14.68 -9.17)"/><path class="cls-1" d="M23.21,21.72V14H34.82v7.75Zm.72-.6H34.12L31.28,16l-.87,1.57L29,15.09l-1.38,2.48L26.76,16Zm.85-4.27a.89.89,0,1,0-.87-.88A.86.86,0,0,0,24.78,16.85Z" transform="translate(-14.68 -9.17)"/><path class="cls-1" d="M31,23.24l2.57,1.06-.89.38,1.06.86-.41.34-.87-1-.44.87Z" transform="translate(-14.68 -9.17)"/><path class="cls-2" d="M23.93,21.12,26.76,16l.88,1.56L29,15.09l1.39,2.49L31.28,16l2.84,5.11Z" transform="translate(-14.68 -9.17)"/><path class="cls-2" d="M24.78,16.85a.89.89,0,1,1,.9-.89A.87.87,0,0,1,24.78,16.85Z" transform="translate(-14.68 -9.17)"/></svg>